<?xml version="1.0" encoding="utf-8"?>
<!-- Generator: Adobe Illustrator 16.0.0, SVG Export Plug-In . SVG Version: 6.00 Build 0)  -->
<!DOCTYPE svg PUBLIC "-//W3C//DTD SVG 1.1//EN" "http://www.w3.org/Graphics/SVG/1.1/DTD/svg11.dtd">
<svg version="1.1" xmlns="http://www.w3.org/2000/svg" xmlns:xlink="http://www.w3.org/1999/xlink" x="0px" y="0px"
	 width="314.824px" height="288px" viewBox="0 0 314.824 288" enable-background="new 0 0 314.824 288" xml:space="preserve">
<g id="color_background">
	<rect x="0.104" fill="#74AED7" width="314.721" height="288"/>
</g>
<g id="darkblue">
	<path fill-rule="evenodd" clip-rule="evenodd" fill="#29266A" d="M176.05,239.522c-1.146,1.271-2.029,2.739-3.019,4.131
		c-4.261,5.984-8.502,11.98-12.742,17.979c-3.441,4.87-6.866,9.75-10.303,14.624c-1.938,2.747-3.892,5.482-5.815,8.238
		c-0.386,0.551-0.73,0.443-1.127,0.074c-0.749-0.704-1.495-1.414-2.257-2.109c-2.563-2.333-5.071-4.729-7.612-7.089
		c-2.878-2.676-5.766-5.337-8.651-8.001c-2.107-1.947-4.22-3.896-6.329-5.845c-0.752-0.693-0.9-0.656-1.534,0.087
		c-1.366,1.612-2.772,3.186-4.163,4.772c-1.858,2.118-3.716,4.232-5.578,6.342c-1.397,1.587-2.81,3.154-4.2,4.743
		c-2.426,2.769-4.844,5.547-7.263,8.317c-0.056,0-0.109,0-0.165,0c-2.475-3.36-4.946-6.721-7.428-10.083
		c-3.185-4.318-6.372-8.637-9.569-12.949c-4.313-5.813-8.64-11.618-12.947-17.435c-7.021-9.479-14.026-18.961-21.043-28.441
		c-3.662-4.944-7.333-9.886-11.001-14.828c-0.666-0.897-0.66-0.877,0.363-1.321c5.031-2.174,10.051-4.359,15.076-6.544
		c0.09-0.039,0.162-0.119,0.326-0.239c-1.842-0.982-3.473-2.13-4.85-3.614c-0.555-0.599-1.09-1.212-1.542-1.887
		c-2.419-3.604-4.824-7.217-7.225-10.833c-0.135-0.203-0.473-0.43-0.254-0.689c0.18-0.213,0.452,0.041,0.664,0.13
		c3.776,1.585,7.554,3.166,11.321,4.776c1.991,0.853,4.06,1.134,6.205,0.977c0.097-0.009,0.189-0.06,0.508-0.167
		c-0.857-0.161-1.501-0.256-2.135-0.402c-5.258-1.208-9.374-4.073-12.484-8.473c-2.645-3.742-5.371-7.423-8.051-11.141
		c-0.18-0.248-0.461-0.469-0.43-0.966c2.939,1.375,5.801,2.776,8.718,4.061c2.888,1.27,5.61,2.98,8.829,3.492
		c-4.818-3.726-7.915-8.448-8.749-14.514c-0.278-2.027-0.369-4.072,0.126-6.073c0.254-0.004,0.312,0.087,0.32,0.198
		c0.215,3.156,1.771,5.584,4.133,7.562c1.663,1.39,3.288,2.83,5.078,4.059c1.824,1.249,2.743,1.154,4.607-0.037
		c2.406-1.538,4.479-3.375,6.139-5.721c1.069-1.507,1.501-3.17,1.722-4.931c0.396-3.141,0.663-6.297,0.838-9.459
		c0.074-1.323,0.204-2.64,0.312-3.961c0.042-0.502-0.156-0.787-0.656-0.964c-1.073-0.38-2.102-0.896-3.185-1.232
		c-2.242-0.694-4.486-0.337-6.749,0.028c-2.353,0.378-3.942,0.172-5.307-1.866c-1.012-1.513-0.958-3.127-0.021-4.682
		c0.999-1.659,2.646-2.613,4.165-3.688c5.225-3.695,10.574-7.217,15.627-11.149c3.764-2.925,7.475-5.92,11.238-8.846
		c2.524-1.963,5.121-3.833,7.72-5.699c2.228-1.6,3.879-3.761,5.497-5.947c2.405-3.251,5.008-6.342,8.002-9.074
		c1.401-1.28,2.97-2.357,4.53-3.439c3.317-2.295,6.212-5.039,8.844-8.102c2.645-3.08,5.21-6.23,7.888-9.288
		c3.299-3.769,6.913-7.186,10.909-10.187c2.845-2.139,5.892-3.949,9.106-5.51c1.273-0.619,2.406-1.538,3.773-2.029
		c4.141-1.486,8.391-2.611,12.66-3.64c1.168-0.282,1.973-0.85,2.675-1.777c5.087-6.721,10.199-13.422,15.311-20.126
		c3.518-4.612,7.079-9.188,10.549-13.837c1.798-2.409,4.105-3.619,7.093-3.836c1.484-0.107,2.989,0.07,4.455-0.284
		c0.152-0.037,0.301-0.105,0.449-0.157c1.142,0,2.281,0,3.423,0c1.604,0.599,2.578,1.788,3.229,3.332
		c0.462,1.096,1.036,2.145,1.835,3.049c1.229,1.387,1.695,2.989,1.338,4.813c-0.066,0.333,0.076,0.58,0.283,0.808
		c1.504,1.635,3.121,3.119,5.311,3.796c0.81,0.735,1.594,1.494,2.181,2.432c0.173,0.278,0.402,0.495,0.673,0.673
		c0.838,1.299,1.692,2.587,2.51,3.897c2.064,3.299,3.313,6.866,3.495,10.777c0.013,0.306,0.06,0.587,0.247,0.839
		c1.619,2.184,2.917,4.567,4.37,6.853c1.964,3.091,3.578,6.315,4.521,9.861c0.017,0.271-0.015,0.551,0.058,0.808
		c0.343,1.283,0.671,2.563,0.784,3.895c0.044,0.446-0.004,0.936,0.291,1.334c-0.245,0.339-0.213,0.741-0.152,1.103
		c0.113,0.703,0.008,1.393,0.008,2.091c0.002,4.478-0.467,8.909-1.138,13.333c-0.666,4.376-1.548,8.69-2.906,12.91
		c-0.862,2.688-1.905,5.303-3.001,7.902c-0.669,1.37-1.351,2.732-2.205,4.002c-0.122,0.186,0.021,0.361,0.095,0.533
		c-0.332,0.095-0.419,0.4-0.563,0.656c-0.968,1.694-1.996,3.351-3.069,4.983c-1.35,2.06-3.152,2.98-5.615,2.365
		c-0.924-1.515-1.85-3.03-2.773-4.546c0.499-0.377,0.436-1.021,0.71-1.511c2.021-3.603,2.196-7.534,2.008-11.526
		c-0.002-0.031-0.074-0.059-0.158-0.118c-0.921,1.377-1.651,2.859-2.341,4.355c-0.884,1.916-1.747,3.846-2.374,5.865
		c-0.237,0.54-0.502,1.071-0.708,1.624c-0.372,0.999-1.23,1.72-1.551,2.748c-0.555,0.506-0.828,1.199-1.158,1.839
		c-2.545,4.913-5.006,9.867-7.466,14.819c-3.032,6.108-5.043,12.627-7.159,19.093c-2.51,7.677-4.859,15.405-7.043,23.18
		c-0.719,2.556-1.536,5.084-2.1,7.681c-0.372,1.181-0.758,2.357-1.101,3.547c-0.085,0.285-0.332,0.595-0.052,0.912
		c-0.076,0.145-0.184,0.279-0.225,0.432c-0.896,3.307-1.823,6.607-2.533,9.962c-0.315,0.947-0.165,1.924-0.167,2.888
		c0,0.207,0.165,0.341,0.32,0.446c0.606,0.409,1.22,0.803,1.959,0.933c0.214,0.109,0.423,0.235,0.644,0.331
		c3.477,1.509,6.955,3.014,10.431,4.521c0.605,0.295,1.216,0.576,1.813,0.886c1.078,0.553,2.188,1.016,3.386,1.236
		c0.871,0.599,1.893,0.877,2.847,1.305c0.192,0.087,0.406,0.165,0.604-0.017c0.698,0.739,1.647,0.933,2.574,1.158
		c1.358,0.33,1.441,0.514,0.634,1.672c-0.536,0.768-1.162,1.484-1.442,2.407c-0.778,0.821-1.369,1.777-1.953,2.739
		c-0.824,0.656-1.309,1.589-1.887,2.43c-0.421,0.608-1.208,1.063-1.078,1.981c-0.097,0.05-0.229,0.072-0.282,0.15
		c-1.146,1.631-2.415,3.18-3.412,4.913c-1.067,1.561-2.038,3.197-3.4,4.539c-1.014,1.471-2.019,2.95-3.045,4.414
		c-2.519,3.592-5.045,7.182-7.569,10.771C177.709,237.306,176.699,238.292,176.05,239.522z M151.193,63.259
		c-0.77,0.427-1.592,0.729-2.421,1.009c-2.845,0.962-5.741,1.301-8.738,0.952c-1.193-0.137-2.372-0.38-3.714-0.53
		c0.228,0.154,0.318,0.251,0.432,0.291c3.736,1.32,7.522,1.835,11.453,0.881c4.479-1.09,8.366-3.169,11.532-6.546
		c0.224-0.237,0.502-0.452,0.4-0.844c-0.111-0.572-0.491-1.006-0.78-1.477c-0.982-1.602-2.066-3.114-3.773-4.044l0.013,0.015
		c-1.911-1.414-3.953-1.263-6.001-0.413c-2.626,1.091-4.593,3.062-6.552,5.037c-1.001,1.01-1.796,2.104-2.161,3.52
		c-0.357,1.388,0.047,2.343,1.42,2.771c1.577,0.489,3.189,0.299,4.783,0.082C148.461,63.776,149.825,63.496,151.193,63.259z
		 M129.889,73.376c-0.074,0.037-0.155,0.062-0.219,0.109c-3.695,2.854-7.387,5.711-11.079,8.566
		c-0.932,0.721-1.866,1.437-2.802,2.157c-0.033-0.044-0.07-0.083-0.105-0.124c0.878-1.429,1.753-2.859,2.633-4.296
		c-0.116-0.054-0.145-0.078-0.164-0.074c-0.441,0.099-0.881,0.206-1.32,0.3c-4.546,0.98-8.988,2.258-13.073,4.558
		c-4.564,2.567-8.646,5.703-11.813,9.931c-1.479,1.97-2.965,3.931-4.994,5.393c-4.987,3.598-9.89,7.312-14.652,11.202
		c-4.721,3.86-9.642,7.446-14.633,10.941c-2.715,1.9-5.514,3.687-8.08,5.796c-1.443,1.188-1.625,2.804-0.423,3.885
		c0.951,0.859,2.048,0.611,3.129,0.361c3.103-0.714,6.131-0.59,9.063,0.76c0.799,0.367,1.598,0.83,2.473,0.917
		c2.226,0.227,4.459,0.421,6.692,0.493c2.407,0.076,4.813,0.221,7.226,0.208c4.436-0.026,8.882,0.133,13.281-0.538
		c3.753-0.574,7.443-1.464,11.096-2.517c9.768-2.812,18.964-6.944,27.767-11.991c1.837-1.055,3.633-2.18,5.523-3.317
		c-2.365-0.721-4.624-1.406-7.119-2.165c3.773-1.827,7.334-3.553,10.895-5.276c-0.014-0.05-0.028-0.1-0.045-0.149
		c-3.575-0.336-7.155-0.673-10.829-1.018c2.102-3.588,4.161-7.101,6.277-10.713c-2.719,0.466-5.317,0.912-8.097,1.389
		c3.093-4.75,6.092-9.355,9.22-14.156c-4.748,1.393-9.267,2.716-13.787,4.041c1.713-3.316,3.511-6.432,5.284-9.56
		c0.939-1.653,1.976-3.257,2.799-4.977c0.133-0.058,0.19-0.141,0.105-0.28C130.039,73.28,129.963,73.328,129.889,73.376z
		 M154.069,106.21c0.05,0.047,0.097,0.095,0.145,0.145c-3.736,3.697-7.337,7.52-10.621,11.632c-0.613,0.769-1.216,1.544-1.822,2.314
		c5.714-3.569,11.37-0.613,12.596,4.4c-1.449-0.947-2.966-1.637-4.622-1.813c-4.409-0.466-7.84,1.864-9.597,5.665
		c-0.171,0.369-0.062,0.627,0.124,0.935c2.235,3.664,3.045,7.669,2.725,11.907c-0.065,0.896-0.134,1.837-0.536,2.702
		c-0.198-0.213-0.217-0.444-0.252-0.691c-0.228-1.631-0.841-3.113-1.961-4.321c-1.567-1.684-3.536-2.272-5.828-2.087
		c-1.579,0.131-3.073,0.467-4.481,1.173c-0.966,0.485-0.947,0.481-0.121,1.136c3.012,2.395,4.18,5.573,3.72,9.315
		c-0.31,2.525-1.419,4.779-2.971,6.787c-1.014,1.315-2.149,2.527-3.586,3.427c1.262-1.804,2.068-3.722,2.07-5.963
		c0.005-4.488-3.37-7.339-7.528-7.531c-0.541-0.022-0.673,0.081-0.506,0.652c0.698,2.352,0.904,4.733,0.35,7.161
		c-1.01,4.418-3.597,7.684-7.324,10.13c-0.041-0.044-0.083-0.085-0.124-0.126c0.143-0.196,0.278-0.396,0.423-0.589
		c1.53-2.011,2.048-4.239,1.305-6.676c-0.999-3.284-3.809-4.956-6.802-5.162c-0.324-0.023-0.753-0.137-0.675,0.475
		c0.229,1.763,0.252,3.527,0.186,5.307c-0.052,1.379-0.163,2.752-0.386,4.1c-0.725,4.346-2.17,8.451-4.383,12.272
		c-0.45,0.776-0.856,1.594-1.591,2.387c1.083-6.511,0.26-12.606-2.391-18.468c0.171,6.232-0.361,12.402-1.557,18.507
		c-1.195,6.1-3.006,12.016-5.627,17.672c0.723-3.268,1.137-6.554,1.11-9.904c-0.024-3.367-0.495-6.653-1.455-9.898
		c-1.336,10.699-4.581,20.744-10.099,30.029c0.743-5.501,1.486-11.003,2.229-16.504c-0.735,0.642-1.369,1.332-1.944,2.066
		c-2.442,3.121-3.894,6.663-4.218,10.608c-0.213,2.591,0.085,5.188,0.324,7.771c0.058,0.624,0.219,1.235,0.615,1.794
		c1.683,2.372,3.313,4.779,4.96,7.176c4.137,6.009,8.28,12.019,12.4,18.04c0.304,0.439,0.443,0.54,0.871,0.115
		c2.556-2.545,5.145-5.06,7.717-7.588c4.178-4.116,8.355-8.225,12.511-12.357c0.424-0.421,0.62-0.347,1.016,0.022
		c1.819,1.699,3.667,3.371,5.524,5.033c2.785,2.485,5.592,4.95,8.381,7.434c2.711,2.411,5.41,4.832,8.164,7.297
		c1.069-1.983,2.112-3.942,3.175-5.892c5.043-9.243,10.088-18.489,15.146-27.729c0.24-0.438,0.3-0.764,0.052-1.246
		c-3.27-6.381-6.511-12.776-9.751-19.173c-0.259-0.513-0.611-0.989-0.728-1.553c0.182-0.152,0.285-0.024,0.401,0.022
		c2.65,1.086,5.301,2.172,7.953,3.258c5.23,2.141,10.464,4.281,15.692,6.43c0.448,0.185,0.849,0.444,1.021-0.31
		c1.517-6.639,3.286-13.213,5.104-19.773c2.764-9.968,5.673-19.897,8.946-29.713c2.219-6.651,4.348-13.342,7.63-19.592
		c2.089-3.982,4.005-8.056,6.059-12.056c1.568-3.055,3.375-5.988,4.613-9.207c1.016-2.638,2.318-5.132,3.621-7.636
		c1.41-2.721,3.592-4.977,4.646-7.896c0.072-0.198,0.261-0.25,0.471-0.241c0.267,0.01,0.265,0.184,0.304,0.382
		c0.443,2.211,0.801,4.444,0.929,6.684c0.115,1.99,0.122,4.001-0.093,6.007c-0.274,2.564-0.77,5.078-1.27,7.599
		c-0.209,1.047-0.708,2.066-0.51,3.247c1.284-0.532,1.974-1.6,2.727-2.563c4.164-5.312,6.544-11.374,7.695-17.996
		c0.446-2.574,0.941-5.152,1.718-7.671c0.813-2.643,1.104-5.39,1.373-8.14c0.087-0.908,0.132-1.82,0.231-2.73
		c0.165-1.501,0.272-3.026,0.186-4.531c-0.074-1.26-0.209-2.525-0.26-3.786c-0.087-2.05,0-4.102-0.333-6.144
		c-0.334-2.074-0.805-4.093-1.796-5.961c-0.83-1.559-1.928-2.798-3.816-3.006c-0.314-0.033-0.372-0.198-0.461-0.456
		c-0.419-1.193-0.98-2.32-1.6-3.421c-0.541-0.964-1.092-1.926-1.92-2.686c-0.105-0.097-0.188-0.297-0.39-0.167
		c-0.165,0.107-0.174,0.293-0.1,0.436c0.182,0.361,0.12,0.743,0.126,1.116c0.023,2.572-0.706,5.033-1.067,7.55
		c-0.278,1.952-1.292,3.175-2.892,4.169c-3.418,2.125-7.056,3.766-10.805,5.186c-0.741,0.281-1.486,0.568-2.446,0.678
		c0.463-0.71,0.839-1.293,1.221-1.868c4.405-6.681,7.89-13.757,9.299-21.717c0.068-0.388,0.172-0.512,0.485-0.278
		c1.364,1.018,2.836,1.907,3.897,3.282c0.196,0.254,0.396,0.689,0.677,0.604c0.345-0.101,0.107-0.565,0.163-0.864
		c0.015-0.079,0.013-0.165-0.002-0.244c-0.514-2.723-1.277-5.342-2.769-7.732c-1.405-2.254-3.057-4.355-4.161-6.804
		c-0.522-1.158-1.397-2.133-2.481-2.832c-1.069-0.692-1.928-1.559-2.572-2.641c-0.773-1.303-1.515-2.624-2.31-4.007
		c-0.336,0.545-0.64,1.016-0.925,1.499c-0.211,0.359-0.427,0.477-0.854,0.262c-0.595-0.299-1.232-0.518-1.864-0.739
		c-1.769-0.619-3.559-0.966-5.429-0.431c-1.275,0.363-2.24,1.153-3.091,2.113c-0.344,0.391-0.625,0.446-0.988,0.022
		c-0.413-0.491-0.865-0.947-1.301-1.416c-0.349,0.263-0.223,0.652-0.301,0.977c-0.382,1.563,0.361,2.602,1.942,2.698
		c0.339,0.022,0.508,0.06,0.573,0.471c0.275,1.753,0.434,3.488,0.337,5.28c-0.155,2.834-0.902,5.479-2.035,8.049
		c-0.274,0.621-0.578,0.879-1.251,0.493c-0.31-0.178-0.713-0.225-1.08-0.267c-1.839-0.202-3.392,0.479-4.884,1.497
		c-1.103,0.753-1.214,1.895-1.453,3.001c-0.733,3.367-1.788,6.666-2.192,10.101c-0.417,3.54-1.394,6.928-2.861,10.156
		c-3.862,8.49-9.938,15.001-17.883,19.825c-2.611,1.584-5.321,2.061-8.234,1.016c-0.367-0.132-0.721-0.313-1.094-0.479
		c-0.389,3.253,0.916,7.171,3.575,9.421c3.649,3.093,7.574,2.812,11.613,0.812c-5.266,3.555-10.531,7.107-15.847,10.695
		c2.378,1.533,4.838,1.728,7.394,1.14c2.011-0.467,3.77-1.503,5.519-2.554c0.189-0.116,0.431-0.389,0.625-0.202
		c0.248,0.237-0.07,0.484-0.176,0.714c-0.054,0.118-0.18,0.2-0.271,0.3c-1.954,2.138-4.283,3.775-6.841,5.112
		c-2.898,1.516-5.947,2.539-9.202,2.924c-0.512,0.06-0.682,0.245-0.463,0.811c0.604,1.573,1.534,2.721,3.113,3.501
		c1.837,0.906,3.592,0.898,5.456,0.304C152.22,107.285,153.121,106.701,154.069,106.21z M153.07,182.614
		c-0.039,0.054-0.079,0.107-0.118,0.161c0.122,0.265,0.237,0.535,0.368,0.797c2.673,5.267,5.342,10.536,8.036,15.792
		c0.216,0.423,0.186,0.712-0.033,1.096c-0.615,1.072-1.193,2.166-1.784,3.252c-4.048,7.436-8.094,14.871-12.14,22.304
		c-1.95,3.588-3.903,7.176-5.853,10.764c-0.254,0.467-0.406,0.766-1.009,0.223c-3.126-2.834-6.317-5.592-9.467-8.401
		c-4.244-3.782-8.472-7.58-12.693-11.385c-0.304-0.272-0.471-0.306-0.771,0.002c-0.72,0.735-1.492,1.421-2.225,2.143
		c-3.561,3.502-7.118,7.007-10.67,10.514c-2.589,2.558-5.178,5.109-7.741,7.691c-0.459,0.461-0.659,0.38-0.999-0.117
		c-3.784-5.532-7.582-11.059-11.385-16.576c-2.873-4.168-5.664-8.392-8.668-12.471c-1.629-2.211-3.573-4.24-4.001-7.138
		c-0.076-0.515-0.14-0.971,0.031-1.48c1.204-3.549,2.382-7.104,3.567-10.655c0.576-1.738,1.147-3.475,1.759-5.32
		c-0.415,0.165-0.708,0.272-0.993,0.396c-7.225,3.154-14.448,6.311-21.675,9.465c-5.968,2.605-11.936,5.212-17.912,7.805
		c-0.433,0.188-0.623,0.3-0.271,0.774c5.89,7.949,11.773,15.901,17.646,23.861c6.191,8.393,12.369,16.803,18.554,25.202
		c5.289,7.182,10.575,14.365,15.87,21.547c2.048,2.776,4.123,5.534,6.149,8.325c0.318,0.439,0.457,0.374,0.75,0.033
		c0.83-0.962,1.682-1.905,2.522-2.859c2.111-2.395,4.228-4.787,6.331-7.188c2.122-2.421,4.226-4.857,6.348-7.276
		c1.748-1.996,3.518-3.97,5.26-5.97c0.691-0.797,0.656-0.808,1.455-0.054c2.665,2.506,5.328,5.012,8.008,7.503
		c4.424,4.112,8.857,8.219,13.291,12.324c1.093,1.014,2.211,1.996,3.285,3.026c0.419,0.402,0.614,0.299,0.894-0.135
		c0.477-0.747,1.009-1.459,1.521-2.186c6.791-9.639,13.589-19.272,20.378-28.916c6.262-8.896,12.512-17.797,18.772-26.693
		c4.833-6.872,9.665-13.744,14.512-20.604c0.324-0.458,0.446-0.688-0.204-0.964c-5.421-2.311-10.807-4.707-16.248-6.972
		c-8.357-3.476-16.753-6.865-25.13-10.292C155.283,183.511,154.177,183.063,153.07,182.614z M206.938,50.848
		c6.107-1.446,9.184-7.406,6.141-13.605C211.623,42.052,209.482,46.505,206.938,50.848z"/>
	<path fill-rule="evenodd" clip-rule="evenodd" fill="#29266A" d="M105.171,97.088c1.19-0.968,2.393-1.928,3.573-2.911
		c2.056-1.711,4.105-3.429,6.146-5.158c0.284-0.243,0.482-0.15,0.691,0.05c1.55,1.519,3.099,3.04,4.643,4.563
		c0.321,0.318,0.156,0.729,0.13,1.084c-0.153,2.046-0.192,4.098-0.322,6.144c-0.171,2.71,0.337,5.34,0.68,7.99
		c0.191,1.488-0.378,2.835-0.539,4.251c-0.213,1.818-1.251,2.805-2.731,3.722c-6.837,4.238-14.026,7.634-21.875,9.535
		c-2.654,0.642-5.354,1.032-8.059,1.409c-2.087,0.294-4.17,0.504-6.282,0.483c-2.716-0.026-5.299-0.716-7.856-1.525
		c-2.469-0.782-5.001-1.065-7.565-0.904c-1.814,0.113-3.618,0.421-5.384,0.886c-0.373,0.099-0.727,0.074-1.149,0.021
		c0.124-0.43,0.465-0.491,0.734-0.619c2.523-1.193,5.102-2.271,7.552-3.616c4.229-2.327,8.032-5.223,11.543-8.528
		c1.827-1.722,3.48-3.688,5.65-4.979c2.7-1.608,4.995-3.658,7.208-5.836c1.144-1.125,1.924-2.53,2.93-3.766
		c2.636-3.236,5.868-5.697,9.638-7.466c1.301-0.611,2.645-1.113,4.253-1.516c-1.312,2.279-2.529,4.401-3.749,6.523
		c-0.118,0.136-0.349,0.227-0.167,0.569C104.98,97.338,105.076,97.214,105.171,97.088z"/>
	<path fill-rule="evenodd" clip-rule="evenodd" fill="#29266A" d="M155.584,52.951c-0.019,0.048-0.062,0.126-0.047,0.141
		c1.153,1.073,0.627,2.229,0.089,3.317c-0.832,1.685-2.034,3.09-3.553,4.209c-0.107,0.078-0.224,0.155-0.347,0.202
		c-0.259,0.102-0.539,0.458-0.787,0.184c-0.229-0.254,0.105-0.52,0.231-0.775c0.691-1.41,1.394-2.818,1.313-4.457
		c0.613,0.191,1.225,0.353,1.883,0.315c0.444-0.026,0.843-0.175,0.982-0.567c0.137-0.386-0.202-0.682-0.491-0.919
		c-0.592-0.486-1.34-0.588-2.048-0.786c0.12-0.052,0.3-0.068,0.35-0.159c0.479-0.867,1.19-0.977,2.052-0.688
		c0.115,0.039,0.258,0,0.386-0.002L155.584,52.951z"/>
	<path fill-rule="evenodd" clip-rule="evenodd" fill="#29266A" d="M212.861,16.798c1.26-1.604,2.574-3.167,3.755-4.826
		c0.506-0.714,0.997-0.904,1.796-0.704c3.087,0.778,6.181,1.529,9.275,2.283c0.4,0.099,0.595,0.3,0.553,0.735
		c-0.156,1.684-0.291,3.372-0.454,5.057c-0.078,0.776-0.074,1.555-0.173,2.335c-0.224,1.788-0.272,3.592-0.452,5.386
		c-0.033,0.339,0.182,0.363,0.324,0.463c0.612,0.431,1.292,0.78,1.859,1.261c0.467,0.391,0.706,0.235,0.991-0.15
		c1.305-1.768,2.615-3.532,3.922-5.299c0.832-1.119,1.666-2.236,2.483-3.363c0.237-0.328,0.446-0.328,0.801-0.156
		c2.248,1.09,4.511,2.152,6.767,3.222c0.73,0.345,1.449,0.715,2.194,1.012c0.43,0.171,0.415,0.443,0.285,0.754
		c-1.08,2.681-2.133,5.379-3.28,8.033c-0.856,1.99-0.801,2.581,0.743,4.112c0.26,0.263,0.438,0.063,0.619-0.056
		c2.025-1.309,4.044-2.63,6.071-3.938c1.327-0.858,2.68-1.685,3.996-2.558c0.271-0.184,0.402-0.204,0.682-0.008
		c2.436,1.707,4.886,3.397,7.347,5.067c0.334,0.225,0.343,0.434,0.215,0.737c-1.078,2.541-2.157,5.082-3.239,7.623
		c-0.65,1.527-1.303,3.057-1.965,4.58c-0.244,0.56,0.141,0.989,0.293,1.451c0.056,0.174,0.404,0.005,0.621-0.067
		c4.492-1.518,8.996-3.008,13.478-4.563c0.808-0.278,1.317-0.134,1.937,0.43c1.933,1.752,3.931,3.433,5.912,5.13
		c0.361,0.31,0.452,0.495,0.063,0.929c-2.377,2.643-4.701,5.33-7.054,7.993c-1.056,1.192-2.122,2.373-3.215,3.533
		c-0.299,0.318-0.402,0.5-0.104,0.928c0.974,1.401,0.615,1.207,2.167,0.831c4.106-0.994,8.197-2.048,12.284-3.123
		c0.524-0.136,0.708-0.024,0.921,0.415c1.716,3.559,3.445,7.107,5.182,10.654c0.157,0.315,0.128,0.48-0.184,0.699
		c-1.916,1.329-3.807,2.696-5.716,4.038c-1.532,1.077-3.078,2.141-4.624,3.203c-0.376,0.261-0.543,0.57-0.35,1.018
		c0.085,0.196,0.172,0.395,0.233,0.599c0.411,1.367,0.4,1.323,1.766,1.076c2.788-0.508,5.59-0.962,8.385-1.441
		c1.346-0.23,2.698-0.438,4.033-0.72c0.339-0.072,0.487-0.054,0.632,0.241c1.311,2.735,2.622,5.471,3.955,8.193
		c0.289,0.592-0.192,0.619-0.489,0.764c-3.92,1.893-7.838,3.794-11.778,5.646c-0.71,0.332-0.948,0.595-0.609,1.396
		c0.481,1.129,0.799,2.328,1.147,3.509c0.112,0.38,0.192,0.489,0.65,0.407c3.821-0.689,7.646-1.332,11.472-1.984
		c1.323-0.227,2.645-0.439,3.965-0.658c0.62-0.104,0.911,0.044,0.904,0.789c-0.024,2.646,0.246,5.286,0.359,7.929
		c0.052,1.116-0.062,2.265,0.211,3.377c0.099,0.393-0.246,0.395-0.498,0.477c-2.652,0.851-5.301,1.712-7.953,2.564
		c-1.732,0.557-3.471,1.11-5.208,1.653c-0.43,0.132-0.622,0.332-0.637,0.836c-0.032,1.045-0.169,2.085-0.299,3.123
		c-0.115,0.917,0.048,1.104,0.966,1.247c2.355,0.357,4.707,0.741,7.058,1.142c2.424,0.415,4.846,0.86,7.271,1.286
		c0.244,0.043,0.473,0.006,0.504,0.367c0.15,1.74,0.295,3.48,0.497,5.214c0.161,1.4,0.166,2.818,0.481,4.201
		c0,0.326,0,0.652,0,0.977c-2.37,0.436-4.733,0.867-7.101,1.307c-2.604,0.483-5.205,0.979-7.812,1.447
		c-0.313,0.058-0.652,0.045-0.554,0.477c0.093,0.411-0.338,0.941,0.389,1.225c2.943,1.147,5.866,2.351,8.802,3.527
		c1.166,0.471,2.339,0.934,3.509,1.39c0.517,0.202,0.713,0.454,0.572,1.088c-0.563,2.56-1.055,5.138-1.542,7.712
		c-0.113,0.584-0.313,0.858-0.977,0.916c-1.573,0.135-3.132,0.448-4.704,0.585c-1.525,0.132-3.039,0.363-4.561,0.53
		c-1.468,0.167-2.933,0.328-4.398,0.512c-0.304,0.039-0.547,0.196-0.526,0.588c0.022,0.434,0.026,0.874-0.005,1.305
		c-0.03,0.424,0.166,0.634,0.531,0.795c3.899,1.726,7.795,3.462,11.693,5.188c0.457,0.205,0.548,0.465,0.393,0.96
		c-1.183,3.695-2.347,7.398-3.472,11.112c-0.237,0.778-0.562,1.038-1.384,0.797c-0.799-0.233-1.657-0.118-2.491-0.204
		c-2.409-0.254-4.839-0.287-7.243-0.56c-0.906-0.104-1.838,0.041-2.721-0.261c-0.256-0.086-0.481-0.014-0.582,0.279
		c-0.192,0.584-0.382,1.17-0.587,1.75c-0.154,0.448,0.229,0.554,0.473,0.696c2.129,1.244,4.271,2.469,6.408,3.705
		c1.694,0.979,3.373,1.983,5.084,2.939c0.361,0.202,0.372,0.355,0.198,0.671c-1.846,3.301-3.695,6.602-5.512,9.919
		c-0.237,0.434-0.477,0.469-0.882,0.345c-4.272-1.307-8.554-2.589-12.821-3.918c-0.649-0.204-1.018-0.18-1.442,0.443
		c-1.405,2.025-1.266,1.588,0.324,3.553c1.47,1.816,2.966,3.608,4.461,5.406c1.183,1.429,2.382,2.845,3.575,4.267
		c0.308,0.37,0.606,0.746,0.973,1.191c-0.822,0.393-1.594,0.756-2.36,1.129c-2.347,1.138-4.688,2.277-7.028,3.421
		c-0.239,0.115-0.452,0.085-0.678-0.021c-2.551-1.199-5.103-2.396-7.658-3.592c-0.365-0.17-0.799-0.244-1.094-0.493
		c-0.921-0.772-1.445-0.213-2.066,0.445c-1.242,1.319-1.251,1.286-0.469,2.909c1.646,3.414,3.23,6.854,4.926,10.242
		c0.395,0.791,0.671,1.646,1.162,2.383c0.434,0.652,0.148,0.858-0.475,0.977c-2.344,0.439-4.682,0.894-7.021,1.342
		c-1.181,0.227-2.381,0.4-3.538,0.712c-0.527,0.14-0.804,0.004-1.13-0.333c-1.899-1.969-3.829-3.911-5.705-5.901
		c-0.489-0.519-0.791-0.438-1.227,0.019c-1.164,1.208-2.415,2.32-3.707,3.388c-0.345,0.282-0.396,0.53-0.188,0.953
		c1.852,3.766,3.673,7.545,5.504,11.316c0.445,0.923,0.452,0.911-0.522,0.927c-2.89,0.054-5.771,0.333-8.664,0.346
		c-0.582,0-1.179,0.095-1.765,0.162c-0.875,0.102-1.412-0.317-1.937-0.912c-1.466-1.655-2.954-3.288-4.434-4.928
		c-0.182-0.2-0.354-0.4-0.508-0.627c-0.62-0.902-0.758-0.908-1.755-0.398c-0.363,0.186-0.432,0.334-0.365,0.788
		c0.295,1.99,0.469,3.997,0.712,5.993c0.246,2.022,0.532,4.04,0.782,6.063c0.063,0.504,0.046,1.016,0.178,1.518
		c0.07,0.271-0.048,0.434-0.382,0.471c-2.347,0.26-4.69,0.53-7.035,0.817c-1.938,0.235-3.879,0.487-5.813,0.771
		c-0.443,0.066-0.486-0.229-0.608-0.477c-0.764-1.571-1.52-3.148-2.283-4.717c-0.07-0.139-0.165-0.267-0.274-0.444
		c-0.432,0.674-0.479,1.41-0.667,2.094c-0.937,3.375-1.852,6.756-2.721,10.152c-0.138,0.534-0.421,0.673-0.856,0.753
		c-3.101,0.595-6.201,1.189-9.302,1.775c-0.448,0.083-0.778,0.024-1.023-0.493c-2.015-4.246-4.063-8.474-6.106-12.708
		c-0.124-0.258-0.204-0.538-0.514-0.686c-0.632-0.299-1.016-0.138-1.188,0.522c-0.925,3.549-1.857,7.091-2.772,10.64
		c-0.148,0.578-0.419,0.862-1.063,0.803c-2.62-0.248-5.25-0.171-7.878-0.161c-0.512,0-0.636-0.282-0.743-0.666
		c-0.999-3.555-2.037-7.1-2.979-10.669c-0.229-0.871-0.71-1.407-1.387-1.87c0.649-1.23,1.659-2.217,2.345-3.418
		c0.667,0.264,1.084,0.86,1.655,1.246c0.582,0.393,0.925,0.902,1.108,1.594c0.78,2.891,1.642,5.764,2.385,8.666
		c0.206,0.805,0.664,0.999,1.346,1.028c0.434,0.019,0.869-0.009,1.303,0.006c0.32,0.011,0.439-0.093,0.524-0.436
		c0.454-1.818,0.962-3.618,1.44-5.431c0.547-2.068,1.09-4.137,1.614-6.212c0.12-0.473,0.322-0.714,0.836-0.615
		c1.445,0.276,2.891,0.558,4.34,0.806c1.244,0.21,2.539,0.303,2.875,1.893c0.095,0.45,0.388,0.819,0.584,1.229
		c1.563,3.234,3.113,6.481,4.647,9.734c0.197,0.422,0.466,0.558,0.894,0.479c1.21-0.217,2.421-0.441,3.633-0.658
		c0.547-0.098,0.819-0.38,0.962-0.96c0.528-2.127,1.171-4.228,1.687-6.356c0.576-2.388,1.61-4.692,1.401-7.233
		c-0.016-0.229,0.146-0.471,0.139-0.701c-0.019-0.413,0.198-0.374,0.495-0.374c1.353-0.015,2.678,0.315,4.021,0.32
		c0.667,0,1.024,0.249,1.299,0.836c0.873,1.878,1.785,3.734,2.693,5.594c0.151,0.312,0.281,0.665,0.756,0.58
		c1.69-0.297,3.394-0.499,5.103-0.644c0.696-0.058,0.898-0.434,0.791-1.084c-0.174-1.057-0.347-2.114-0.473-3.179
		c-0.343-2.902-0.632-5.813-1.026-8.714c-0.072-0.516,0.074-0.666,0.442-0.838c1.046-0.491,2.08-1.005,3.133-1.48
		c0.956-0.431,1.852-0.98,2.837-1.354c0.419-0.161,0.658-0.074,0.91,0.227c1.457,1.732,3.036,3.361,4.531,5.06
		c0.61,0.691,1.35,1.27,1.837,2.042c0.384,0.615,0.877,0.819,1.496,0.669c0.806-0.198,1.612-0.153,2.418-0.132
		c0.658,0.018,0.701-0.145,0.427-0.711c-1.194-2.436-2.343-4.895-3.513-7.345c-0.9-1.893-0.828-2.186,0.86-3.451
		c0.13-0.097,0.289-0.157,0.404-0.265c2.409-2.239,4.833-4.467,7.209-6.739c0.51-0.489,0.78-0.595,1.319-0.024
		c2.297,2.415,4.646,4.782,6.977,7.162c0.184,0.187,0.335,0.487,0.652,0.426c1.396-0.269,2.783-0.558,4.224-0.849
		c-0.317-0.706-0.578-1.325-0.867-1.928c-1.67-3.464-3.34-6.926-5.028-10.379c-0.196-0.403-0.186-0.68,0.159-0.979
		c0.341-0.298,0.632-0.648,0.949-0.973c1.561-1.587,3.123-3.164,4.672-4.763c0.262-0.266,0.482-0.241,0.77-0.104
		c0.847,0.408,1.697,0.813,2.546,1.209c2.603,1.218,5.21,2.428,7.811,3.647c0.207,0.098,0.38,0.182,0.605,0.064
		c0.906-0.465,1.816-0.917,2.771-1.397c-1.098-1.286-2.111-2.535-3.166-3.753c-1.883-2.172-3.67-4.422-5.526-6.616
		c-0.39-0.464-0.469-0.807-0.076-1.323c1.534-2.031,3.053-4.076,4.519-6.159c0.351-0.498,0.667-0.688,1.232-0.513
		c2.554,0.797,5.109,1.596,7.669,2.374c1.713,0.524,3.443,1.004,5.154,1.544c0.315,0.1,0.415,0.031,0.549-0.221
		c0.671-1.224,1.336-2.45,2.044-3.653c0.18-0.304,0.033-0.357-0.165-0.473c-1.866-1.063-3.726-2.129-5.588-3.198
		c-1.835-1.055-3.669-2.119-5.508-3.17c-0.376-0.215-0.479-0.452-0.326-0.893c0.888-2.524,1.751-5.059,2.597-7.598
		c0.148-0.442,0.387-0.624,0.826-0.548c0.771,0.137,1.559,0.109,2.332,0.184c2.624,0.265,5.254,0.45,7.882,0.632
		c0.86,0.059,1.738,0.048,2.57,0.235c0.493,0.111,0.551-0.084,0.654-0.402c0.51-1.581,1.007-3.167,1.542-4.737
		c0.213-0.623-0.061-0.873-0.586-1.108c-3.512-1.544-7.005-3.123-10.516-4.665c-0.506-0.222-0.636-0.517-0.639-1.043
		c-0.012-2.411,0.079-4.818,0.153-7.225c0.022-0.708,0.332-0.869,0.896-0.932c1.52-0.165,3.045-0.293,4.561-0.506
		c3.053-0.429,6.112-0.809,9.182-1.144c0.382-0.041,0.908,0.003,1.02-0.582c0.12-0.627,0.178-1.277,0.354-1.891
		c0.141-0.483-0.004-0.613-0.444-0.784c-3.911-1.536-7.812-3.119-11.725-4.655c-0.395-0.152-0.565-0.308-0.563-0.73
		c0.014-2.254,0.017-4.509-0.002-6.761c-0.005-0.452,0.197-0.638,0.596-0.699c0.769-0.12,1.54-0.211,2.307-0.352
		c3.841-0.695,7.683-1.414,11.526-2.102c0.665-0.119,0.817-0.473,0.723-1.069c-0.122-0.768-0.241-1.537-0.31-2.31
		c-0.027-0.361-0.113-0.491-0.5-0.547c-1.696-0.246-3.389-0.535-5.076-0.821c-3.457-0.585-6.908-1.197-10.37-1.749
		c-0.522-0.082-0.601-0.315-0.485-0.686c0.267-0.866,0.161-1.765,0.258-2.642c0.265-2.298,0.372-4.614,0.524-6.924
		c0.062-0.958,0.407-1.557,1.443-1.835c2.143-0.576,4.25-1.295,6.372-1.959c1.891-0.593,3.771-1.204,5.666-1.781
		c0.457-0.141,0.639-0.42,0.515-0.834c-0.237-0.802-0.104-1.614-0.149-2.42c-0.021-0.345,0.018-0.686-0.095-1.04
		c-0.119-0.37-0.313-0.483-0.644-0.417c-1.604,0.317-3.212,0.582-4.828,0.836c-3.143,0.497-6.288,1.01-9.409,1.633
		c-0.873,0.174-0.975-0.18-1.169-0.81c-1.055-3.373-2.128-6.741-3.236-10.096c-0.217-0.654-0.087-0.927,0.539-1.225
		c3.544-1.681,7.063-3.408,10.585-5.132c1.567-0.764,1.551-0.771,0.76-2.361c-0.229-0.456-0.432-0.663-1.051-0.528
		c-1.726,0.369-3.478,0.601-5.225,0.89c-2.721,0.45-5.445,0.875-8.155,1.381c-0.533,0.1-0.731,0.004-0.882-0.469
		c-0.826-2.63-1.655-5.258-2.513-7.877c-0.119-0.365-0.028-0.512,0.271-0.717c1.325-0.903,2.632-1.845,3.945-2.771
		c2.019-1.419,4.033-2.835,6.052-4.251c0.294-0.208,0.434-0.41,0.231-0.801c-0.764-1.478-1.523-2.962-2.228-4.469
		c-0.173-0.376-0.284-0.37-0.642-0.279c-4.198,1.071-8.412,2.092-12.604,3.189c-0.584,0.15-0.815-0.015-1.103-0.423
		c-1.309-1.864-2.628-3.722-3.963-5.565c-0.263-0.365-0.287-0.652,0.017-0.989c1.911-2.122,3.825-4.244,5.724-6.378
		c1.058-1.186,2.096-2.385,3.124-3.597c0.396-0.466,1.201-0.809,1.151-1.379c-0.052-0.604-0.952-0.794-1.35-1.316
		c-0.43-0.565-0.936-0.624-1.631-0.384c-5.017,1.731-10.047,3.41-15.067,5.13c-0.621,0.21-0.886,0.09-1.101-0.546
		c-0.473-1.422-1.094-2.795-1.538-4.226c-0.214-0.693-0.734-1.325-0.344-2.204c1.459-3.282,2.817-6.607,4.256-9.898
		c0.302-0.689,0.324-1.121-0.438-1.49c-0.574-0.276-1.098-0.677-1.59-1.09c-0.4-0.335-0.675-0.324-1.116-0.035
		c-3.521,2.306-7.062,4.576-10.59,6.872c-0.419,0.274-0.71,0.248-1.014-0.148c-1.631-2.129-3.27-4.253-4.904-6.375
		c-0.172-0.223-0.261-0.434-0.135-0.73c0.326-0.762,0.615-1.54,0.929-2.31c0.824-2.036,1.647-4.069,2.483-6.101
		c0.114-0.278,0.087-0.421-0.217-0.549c-0.669-0.283-1.355-0.543-1.956-0.936c-0.725-0.473-1.111-0.195-1.545,0.393
		c-2.156,2.938-4.347,5.851-6.49,8.802c-0.249,0.345-0.402,0.345-0.679,0.163c-2.456-1.631-4.904-3.273-7.374-4.886
		c-0.334-0.217-0.363-0.396-0.33-0.774c0.252-3.028,0.428-6.061,0.698-9.087c0.07-0.776,0.022-1.577,0.204-2.326
		c0.139-0.56-0.08-0.673-0.485-0.768c-1.226-0.283-2.469-0.508-3.67-0.867c-0.481-0.141-0.719-0.002-0.964,0.306
		c-0.973,1.216-1.937,2.436-2.904,3.655c-0.271-0.178-0.5-0.395-0.673-0.673C214.455,18.292,213.671,17.533,212.861,16.798z"/>
	<path fill-rule="evenodd" clip-rule="evenodd" fill="#29266A" d="M199.256,198.929c-1.777-4.998-3.546-9.997-5.34-14.986
		c-0.19-0.531-0.07-0.772,0.432-0.95c5.356-1.893,10.249-4.659,14.771-8.064c2.563-1.935,4.979-4.067,7.139-6.455
		c2.32-2.57,4.461-5.293,6.318-8.225c0.231-0.363,0.393-0.723,0.916-0.196c7.854,7.888,15.722,15.759,23.602,23.616
		c0.943,0.938,1.271,2.134,1.476,3.344c0.258,1.538,0.139,3.071-0.415,4.578c-0.252,0.696-0.708,1.218-1.174,1.701
		c-2.32,2.403-4.813,4.62-7.363,6.779c-4.131,3.493-8.563,6.556-13.249,9.235c-3.286,1.877-6.661,3.604-10.204,4.979
		c-0.773,0.301-1.525,0.658-2.303,0.949c-3.485,1.294-6.408,0.225-9.046-2.135c-0.769-0.688-1.197-1.509-1.521-2.479
		c-0.729-2.159-1.386-4.35-2.272-6.455c0.28-0.923,0.906-1.64,1.442-2.407c0.808-1.158,0.725-1.342-0.634-1.672
		C200.903,199.861,199.954,199.668,199.256,198.929z M210.837,211.513c1.488-0.013,2.721-0.871,4.079-1.299
		c1.35-0.421,2.601-1.125,3.889-1.717c3.13-1.441,6.106-3.15,9.004-4.988c5.772-3.655,11.057-7.924,15.811-12.848
		c1.21-1.251,1.227-3.369-0.01-4.605c-6.412-6.413-12.826-12.823-19.237-19.236c-0.095-0.096-0.198-0.188-0.287-0.287
		c-0.284-0.316-0.441-0.405-0.78,0.049c-0.999,1.332-2.011,2.672-3.168,3.86c-2.374,2.438-4.742,4.885-7.43,7.009
		c-3.834,3.026-7.949,5.569-12.359,7.658c-1.283,0.609-1.275,0.59-0.801,1.942c2.55,7.252,5.095,14.504,7.634,21.76
		C207.757,210.46,209.138,211.492,210.837,211.513z"/>
	<path fill-rule="evenodd" clip-rule="evenodd" fill="#29266A" d="M181.33,171.548c3.52-0.695,6.857-1.938,10.043-3.557
		c2.943-1.496,5.676-3.325,8.224-5.453c3.775-3.161,6.866-6.885,9.363-11.092c2.273-3.827,3.838-7.954,4.779-12.31
		c0.421-1.942,0.652-3.903,0.849-5.883c0.156-1.6,0.156-3.191,0.107-4.779c-0.107-3.358-0.646-6.657-1.549-9.901
		c-0.736-2.643-1.755-5.172-2.941-7.637c-0.971-2.017-2.279-3.835-3.484-5.714c-0.107-0.171-0.256-0.278-0.465-0.286
		c0.32-1.028,1.179-1.749,1.551-2.748c0.206-0.553,0.471-1.084,0.708-1.624c0.603,1.064,1.57,1.857,2.155,2.935
		c0.924,1.516,1.85,3.031,2.773,4.546c1.162,2.354,2.296,4.717,3.104,7.228c0.883,2.76,1.55,5.561,1.932,8.437
		c0.351,2.628,0.574,5.262,0.454,7.903c-0.173,3.838-0.737,7.626-1.794,11.331c-0.782,2.737-1.796,5.396-3.086,7.927
		c-1.835,3.596-4.075,6.922-6.74,9.979c-2.817,3.233-6.013,6.04-9.592,8.354c-4.016,2.593-8.317,4.635-12.989,5.838
		c-1.507,0.388-3.014,0.751-4.554,0.966c-0.28-0.317-0.033-0.627,0.052-0.912C180.572,173.905,180.958,172.729,181.33,171.548z"/>
	<path fill-rule="evenodd" clip-rule="evenodd" fill="#29266A" d="M224.802,95.505c0.797,1.554,0.819,1.556,2.087,0.286
		c6.515-6.521,13.035-13.04,19.555-19.559c1.227-1.232,1.247-3.644,0.054-4.923c-1.327-1.421-2.57-2.922-3.972-4.264
		c-3.121-2.997-6.346-5.883-9.89-8.387c-0.224-0.154-0.43-0.328-0.645-0.493c-0.295-0.398-0.247-0.888-0.291-1.334
		c-0.113-1.331-0.441-2.611-0.784-3.895c-0.072-0.257-0.041-0.537-0.058-0.808c2.091,1.538,4.211,3.043,6.272,4.62
		c3.782,2.892,7.254,6.131,10.545,9.562c0.892,0.927,1.777,1.872,2.549,2.896c1.313,1.729,1.462,3.763,1.26,5.842
		c-0.041,0.421-0.176,0.836-0.276,1.249c-0.259,1.032-0.698,1.924-1.482,2.708c-8.047,7.999-16.058,16.027-24.08,24.049
		c-0.745,0.745-0.734,0.737-1.294-0.159c-0.588-0.933-0.932-2.006-1.66-2.856c-0.074-0.172-0.217-0.348-0.095-0.533
		C223.451,98.237,224.133,96.875,224.802,95.505z"/>
	<path fill-rule="evenodd" clip-rule="evenodd" fill="#29266A" d="M177.42,186.4c2.626-0.099,5.225-0.408,7.81-0.884
		c1.787-0.328,3.553-0.749,5.295-1.246c0.471-0.137,0.619-0.056,0.782,0.423c1.092,3.181,2.235,6.346,3.351,9.521
		c0.4,1.136,0.766,2.283,1.147,3.427c-1.197-0.221-2.308-0.684-3.386-1.236c-0.597-0.31-1.207-0.591-1.813-0.886
		c-0.634-2.007-1.337-3.99-2.083-5.96c-0.121-0.323-0.204-0.369-0.561-0.299c-1.831,0.361-3.656,0.737-5.521,0.927
		c-0.97,0.099-1.979,0.099-2.91,0.48c-0.739-0.13-1.353-0.523-1.959-0.933c-0.155-0.105-0.32-0.239-0.32-0.446
		C177.255,188.324,177.104,187.348,177.42,186.4z"/>
	<path fill-rule="evenodd" clip-rule="evenodd" fill="#29266A" d="M249.016,133.782c5.375,0,10.753,0.033,16.126-0.024
		c1.268-0.015,2.302,0.396,3.309,1.048c1.121,0.729,2.066,1.619,2.778,2.767c0.65,1.051,1.041,2.093,0.851,3.388
		c-0.846,5.757-2.041,11.422-3.839,16.968c-1.668,5.15-3.825,10.08-6.319,14.869c-1.685,3.237-3.696,6.282-5.705,9.326
		c-0.617,0.939-1.577,0.888-2.42,0.822c-1.403-0.105-2.828-0.242-4.141-0.882c-0.302-0.146-0.562-0.295-0.786-0.524
		c-7.969-7.968-15.933-15.94-23.913-23.894c-0.396-0.395-0.436-0.663-0.175-1.156c2.184-4.203,3.889-8.592,4.977-13.209
		c0.59-2.504,1.104-5.022,1.257-7.601c0.015-0.237,0.111-0.471,0.146-0.708c0.165-1.189,0.163-1.189,1.399-1.189
		C238.048,133.782,243.53,133.782,249.016,133.782z M250.291,137.855c-4.808,0-9.613,0.006-14.419-0.009
		c-0.563-0.002-0.888,0.093-0.972,0.754c-0.155,1.271-0.383,2.541-0.641,3.798c-0.916,4.478-2.291,8.811-4.267,12.935
		c-0.332,0.696-0.246,1.08,0.274,1.603c6.985,6.952,13.95,13.925,20.92,20.895c0.115,0.115,0.223,0.241,0.344,0.343
		c0.504,0.414,1.148,0.445,1.734,0.52c0.347,0.041,0.483-0.508,0.682-0.809c1.057-1.586,2.033-3.217,2.986-4.863
		c2.772-4.773,5.037-9.772,6.833-14.98c1.855-5.382,3.189-10.886,3.918-16.535c0.243-1.883-1.224-3.647-3.142-3.649
		C259.791,137.853,255.041,137.855,250.291,137.855z"/>
	<path fill-rule="evenodd" clip-rule="evenodd" fill="#29266A" d="M199.068,206.905c0.621,1.736,1.255,3.468,1.85,5.214
		c0.229,0.673,0.08,1.362-0.025,2.061c-0.305,2.05-1.197,3.8-2.491,5.384c-0.324,0.396-0.76,0.245-1.123,0.305
		c-2.745,0.437-5.475,1.012-8.27,1.051c1.362-1.342,2.333-2.979,3.4-4.539c0.477-0.054,0.955-0.111,1.433-0.163
		c2.111-0.235,2.465-0.53,2.904-2.524c0.198-0.894-0.393-1.594-0.643-2.376c-0.13-0.919,0.657-1.373,1.078-1.981
		C197.76,208.494,198.244,207.562,199.068,206.905z"/>
	<path fill-rule="evenodd" clip-rule="evenodd" fill="#29266A" d="M248.662,131.012c-5.484,0-10.969-0.017-16.454,0.019
		c-0.735,0.005-0.894-0.21-0.89-0.912c0.021-4.694-0.563-9.312-1.72-13.87c-0.795-3.125-1.829-6.155-3.147-9.091
		c-0.256-0.574-0.149-0.871,0.272-1.288c4.582-4.552,9.146-9.128,13.717-13.698c3.647-3.646,7.324-7.267,10.924-10.959
		c0.975-1,2.147-1.375,3.402-1.675c0.847-0.204,1.715-0.145,2.578-0.188c0.481-0.022,0.749,0.186,0.968,0.543
		c1.777,2.906,3.506,5.836,5.008,8.893c3.235,6.566,5.643,13.433,7.242,20.57c0.683,3.056,1.216,6.144,1.525,9.271
		c0.176,1.766,0.402,3.524,0.462,5.3c0.011,0.334,0.104,0.718-0.423,0.801c-0.159,0.022-0.18,0.239-0.241,0.39
		c-1.134,2.813-3.245,4.622-5.977,5.795c-0.297,0.128-0.584,0.097-0.875,0.099C259.578,131.012,254.118,131.012,248.662,131.012z
		 M250.223,126.776c4.344,0,8.688-0.037,13.028,0.024c1.236,0.017,2.276-0.26,3.199-1.044c1.073-0.913,1.811-2.127,1.8-3.479
		c-0.017-1.918-0.295-3.85-0.623-5.751c-0.595-3.45-1.277-6.879-2.194-10.271c-1.435-5.299-3.414-10.375-5.757-15.32
		c-1.08-2.279-2.337-4.463-3.609-6.637c-0.315-0.539-0.625-0.619-1.185-0.43c-0.363,0.122-0.603,0.33-0.851,0.576
		c-7.447,7.445-14.89,14.897-22.35,22.331c-0.4,0.396-0.491,0.721-0.289,1.245c1.166,3.023,2.124,6.114,2.793,9.293
		c0.601,2.863,1.023,5.751,1.197,8.67c0.041,0.648,0.213,0.808,0.836,0.803C240.889,126.766,245.556,126.776,250.223,126.776z"/>
	<path fill-rule="evenodd" clip-rule="evenodd" fill="#29266A" d="M163.768,190.934c4.145,1.794,8.131,3.523,12.121,5.245
		c5.206,2.244,10.414,4.484,15.626,6.711c0.62,0.263,0.782,0.459,0.329,1.099c-3.977,5.575-7.921,11.174-11.859,16.776
		c-5.819,8.275-11.618,16.565-17.439,24.839c-6.756,9.602-13.531,19.19-20.275,28.797c-0.439,0.624-0.66,0.605-1.205,0.095
		c-4.114-3.848-8.275-7.644-12.404-11.473c-2.845-2.637-5.66-5.299-8.494-7.943c-1.169-1.092-2.364-2.155-3.52-3.26
		c-0.337-0.322-0.474-0.32-0.793,0.054c-2.574,2.962-5.188,5.89-7.774,8.837c-3.358,3.823-6.705,7.654-10.055,11.481
		c-0.787,0.898-1.588,1.78-2.352,2.694c-0.341,0.406-0.473,0.299-0.756-0.085c-2.853-3.897-5.734-7.778-8.604-11.665
		c-6.185-8.385-12.367-16.771-18.55-25.157c-4.63-6.283-9.256-12.567-13.884-18.849c-3.701-5.022-7.391-10.053-11.127-15.051
		c-0.473-0.634-0.276-0.78,0.3-1.03c8.498-3.695,16.988-7.404,25.481-11.107c0.632-0.274,1.268-0.545,2.017-0.869
		c-0.204,1.147-0.609,2.105-0.934,3.082c-0.875,2.673-1.769,5.34-2.688,7.999c-0.15,0.436-0.097,0.749,0.168,1.104
		c3.001,4.025,6.021,8.04,8.981,12.095c2.441,3.344,4.917,6.665,7.394,9.98c4.218,5.649,8.394,11.328,12.611,16.975
		c0.289,0.388,0.443,0.61,0.927,0.063c2.439-2.762,4.958-5.451,7.429-8.183c3.438-3.79,6.857-7.601,10.287-11.401
		c0.652-0.724,1.316-1.437,1.979-2.15c0.464-0.506,0.854-0.632,1.468-0.07c5.191,4.76,10.424,9.478,15.635,14.215
		c2.584,2.349,5.16,4.708,7.72,7.082c0.389,0.361,0.556,0.428,0.874-0.091c2.638-4.293,5.313-8.563,7.966-12.848
		c5.08-8.195,10.146-16.398,15.228-24.594c1.453-2.341,1.46-2.329,0.678-4.915c-0.769-2.537-1.518-5.08-2.275-7.619
		C163.93,191.567,163.874,191.336,163.768,190.934z"/>
</g>
<g id="light_blue">
</g>
<g id="orange">
	<path fill="#F26722" d="M213.229,90.344c-0.921,1.377-1.651,2.859-2.341,4.355c-0.884,1.916-1.747,3.846-2.374,5.865
		c0.603,1.064,1.57,1.857,2.155,2.935c0.499-0.377,0.436-1.021,0.71-1.511c2.021-3.603,2.196-7.534,2.008-11.526
		C213.386,90.431,213.313,90.403,213.229,90.344z"/>
	<path fill="#F26722" d="M159.357,56.995c-0.982-1.602-2.066-3.114-3.773-4.044l0.013,0.015c-0.006,0-0.013,0-0.021,0
		c-0.019,0.05-0.054,0.113-0.039,0.126c1.153,1.073,0.627,2.229,0.089,3.317c-0.832,1.685-2.034,3.09-3.553,4.209
		c-0.107,0.078-0.224,0.155-0.347,0.202c-0.259,0.102-0.539,0.458-0.787,0.184c-0.229-0.254,0.105-0.52,0.231-0.775
		c0.691-1.41,1.394-2.818,1.313-4.457c-0.072-0.035-0.148-0.063-0.216-0.107c-0.467-0.302-1.105-0.591-0.886-1.255
		c0.202-0.604,0.854-0.621,1.428-0.595c0.12-0.052,0.3-0.068,0.35-0.159c0.479-0.867,1.19-0.977,2.052-0.688
		c0.109,0.037,0.243,0.007,0.365-0.002c0.002-0.002,0.004-0.006,0.006-0.01c-1.907-1.402-3.944-1.251-5.986-0.403
		c-2.626,1.091-4.593,3.062-6.552,5.037c-1.001,1.01-1.796,2.104-2.161,3.52c-0.357,1.388,0.047,2.343,1.42,2.771
		c1.577,0.489,3.189,0.299,4.783,0.082c1.375-0.186,2.739-0.466,4.107-0.703c2.808-1.119,5.421-2.605,7.971-4.218
		c0.317-0.2,0.647-0.38,0.974-0.569C160.026,57.899,159.646,57.466,159.357,56.995z"/>
	<path fill="#F26722" d="M64.014,96.759l-6.447-6.447l3.223-3.222L44.682,70.982l-3.223,3.222l-4.88-4.88l-1.565-8.009l6.445-6.446
		l25.775,25.775l3.221-3.221l6.447,6.447L64.014,96.759z"/>
	<path fill="#F26722" d="M42.704,118.068l-6.447-6.446l3.222-3.223L23.371,92.292l-3.222,3.223l-4.881-4.881l-1.564-8.009
		l6.444-6.444l25.774,25.775l3.222-3.223l6.447,6.447L42.704,118.068z"/>
	<path fill="#F26722" d="M52.505,43.824l19.333-19.332l6.443,6.443L65.394,43.824l6.445,6.445l7.732-7.732l10.31-0.002l9.021,9.021
		l0.001,10.313l-9.021,9.021L79.57,70.889l-4.51-4.51l6.444-6.443l3.22,3.219l6.443-6.443l-6.441-6.441l-7.732,7.732L66.682,58
		L52.505,43.824z"/>
	<path fill="#F26722" d="M86.108,29.556l-4.511-4.511l-0.002-10.312l9.021-9.021l10.313,0.001l9.02,9.021V18.6h3.867l9.021,9.021
		l0.001,10.313l-9.021,9.021l-10.312-0.002l-4.51-4.509L105.44,36l3.219,3.219l6.445-6.445l-6.44-6.441l-3.224,3.224l-6.444-6.443
		l3.224-3.224l-6.445-6.445l-6.446,6.445l3.224,3.224L86.108,29.556z"/>
	<path fill="#F26722" d="M302.034,129.779c-0.122-0.768-0.241-1.537-0.31-2.31c-0.027-0.361-0.113-0.491-0.5-0.547
		c-1.696-0.246-3.389-0.535-5.076-0.821c-3.457-0.585-6.908-1.197-10.37-1.749c-0.522-0.082-0.601-0.315-0.485-0.686
		c0.267-0.866,0.161-1.765,0.258-2.642c0.265-2.298,0.372-4.614,0.524-6.924c0.062-0.958,0.407-1.557,1.443-1.835
		c2.143-0.576,4.25-1.295,6.372-1.959c1.891-0.593,3.771-1.204,5.666-1.781c0.457-0.141,0.639-0.42,0.515-0.834
		c-0.237-0.802-0.104-1.614-0.149-2.42c-0.021-0.345,0.018-0.686-0.095-1.04c-0.119-0.37-0.313-0.483-0.644-0.417
		c-1.604,0.317-3.212,0.582-4.828,0.836c-3.143,0.497-6.288,1.01-9.409,1.633c-0.873,0.174-0.975-0.18-1.169-0.81
		c-1.055-3.373-2.128-6.741-3.236-10.096c-0.217-0.654-0.087-0.927,0.539-1.225c3.544-1.681,7.063-3.408,10.585-5.132
		c1.567-0.764,1.551-0.771,0.76-2.361c-0.229-0.456-0.432-0.663-1.051-0.528c-1.726,0.369-3.478,0.601-5.225,0.89
		c-2.721,0.45-5.445,0.875-8.155,1.381c-0.533,0.1-0.731,0.004-0.882-0.469c-0.826-2.63-1.655-5.258-2.513-7.877
		c-0.119-0.365-0.028-0.512,0.271-0.717c1.325-0.903,2.632-1.845,3.945-2.771c2.019-1.419,4.033-2.835,6.052-4.251
		c0.294-0.208,0.434-0.41,0.231-0.801c-0.764-1.478-1.523-2.962-2.228-4.469c-0.173-0.376-0.284-0.37-0.642-0.279
		c-4.198,1.071-8.412,2.092-12.604,3.189c-0.584,0.15-0.815-0.015-1.103-0.423c-1.309-1.864-2.628-3.722-3.963-5.565
		c-0.263-0.365-0.287-0.652,0.017-0.989c1.911-2.122,3.825-4.244,5.724-6.378c1.058-1.186,2.096-2.385,3.124-3.597
		c0.396-0.466,1.201-0.809,1.151-1.379c-0.052-0.604-0.952-0.794-1.35-1.316c-0.43-0.565-0.936-0.624-1.631-0.384
		c-5.017,1.731-10.047,3.41-15.067,5.13c-0.621,0.21-0.886,0.09-1.101-0.546c-0.473-1.422-1.094-2.795-1.538-4.226
		c-0.214-0.693-0.734-1.325-0.344-2.204c1.459-3.282,2.817-6.607,4.256-9.898c0.302-0.689,0.324-1.121-0.438-1.49
		c-0.574-0.276-1.098-0.677-1.59-1.09c-0.4-0.335-0.675-0.324-1.116-0.035c-3.521,2.306-7.062,4.576-10.59,6.872
		c-0.419,0.274-0.71,0.248-1.014-0.148c-1.631-2.129-3.27-4.253-4.904-6.375c-0.172-0.223-0.261-0.434-0.135-0.73
		c0.326-0.762,0.615-1.54,0.929-2.31c0.824-2.036,1.647-4.069,2.483-6.101c0.114-0.278,0.087-0.421-0.217-0.549
		c-0.669-0.283-1.355-0.543-1.956-0.936c-0.725-0.473-1.111-0.195-1.545,0.393c-2.156,2.938-4.347,5.851-6.49,8.802
		c-0.249,0.345-0.402,0.345-0.679,0.163c-2.456-1.631-4.904-3.273-7.374-4.886c-0.334-0.217-0.363-0.396-0.33-0.774
		c0.252-3.028,0.428-6.061,0.698-9.087c0.07-0.776,0.022-1.577,0.204-2.326c0.139-0.56-0.08-0.673-0.485-0.768
		c-1.226-0.283-2.469-0.508-3.67-0.867c-0.481-0.141-0.719-0.002-0.964,0.306c-0.973,1.216-1.937,2.436-2.904,3.655
		c0.838,1.299,1.692,2.587,2.51,3.897c2.064,3.299,3.313,6.866,3.495,10.777c0.013,0.306,0.06,0.587,0.247,0.839
		c1.619,2.184,2.917,4.567,4.37,6.853c1.964,3.091,3.578,6.315,4.521,9.861c2.091,1.538,4.211,3.043,6.272,4.62
		c3.782,2.892,7.254,6.131,10.545,9.562c0.892,0.927,1.777,1.872,2.549,2.896c1.313,1.729,1.462,3.763,1.26,5.842
		c-0.041,0.421-0.176,0.836-0.276,1.249c-0.259,1.032-0.698,1.924-1.482,2.708c-8.047,7.999-16.058,16.027-24.08,24.049
		c-0.745,0.745-0.734,0.737-1.294-0.159c-0.588-0.933-0.932-2.006-1.66-2.856c-0.332,0.095-0.419,0.4-0.563,0.656
		c-0.968,1.694-1.996,3.351-3.069,4.983c-1.35,2.06-3.152,2.98-5.615,2.365c1.162,2.354,2.296,4.717,3.104,7.228
		c0.883,2.76,1.55,5.561,1.932,8.437c0.351,2.628,0.574,5.262,0.454,7.903c-0.173,3.838-0.737,7.626-1.794,11.331
		c-0.782,2.737-1.796,5.396-3.086,7.927c-1.835,3.596-4.075,6.922-6.74,9.979c-2.817,3.233-6.013,6.04-9.592,8.354
		c-4.016,2.593-8.317,4.635-12.989,5.838c-1.507,0.388-3.014,0.751-4.554,0.966c-0.076,0.145-0.184,0.279-0.225,0.432
		c-0.896,3.307-1.823,6.607-2.533,9.962c2.626-0.099,5.225-0.408,7.81-0.884c1.787-0.328,3.553-0.749,5.295-1.246
		c0.471-0.137,0.619-0.056,0.782,0.423c1.092,3.181,2.235,6.346,3.351,9.521c0.4,1.136,0.766,2.283,1.147,3.427
		c0.871,0.599,1.893,0.877,2.847,1.305c0.192,0.087,0.406,0.165,0.604-0.017c-1.777-4.998-3.546-9.997-5.34-14.986
		c-0.19-0.531-0.07-0.772,0.432-0.95c5.356-1.893,10.249-4.659,14.771-8.064c2.563-1.935,4.979-4.067,7.139-6.455
		c2.32-2.57,4.461-5.293,6.318-8.225c0.231-0.363,0.393-0.723,0.916-0.196c7.854,7.888,15.722,15.759,23.602,23.616
		c0.943,0.938,1.271,2.134,1.476,3.344c0.258,1.538,0.139,3.071-0.415,4.578c-0.252,0.696-0.708,1.218-1.174,1.701
		c-2.32,2.403-4.813,4.62-7.363,6.779c-4.131,3.493-8.563,6.556-13.249,9.235c-3.286,1.877-6.661,3.604-10.204,4.979
		c-0.773,0.301-1.525,0.658-2.303,0.949c-3.485,1.294-6.408,0.225-9.046-2.135c-0.769-0.688-1.197-1.509-1.521-2.479
		c-0.729-2.159-1.386-4.35-2.272-6.455c-0.778,0.821-1.369,1.777-1.953,2.739c0.621,1.736,1.255,3.468,1.85,5.214
		c0.229,0.673,0.08,1.362-0.025,2.061c-0.305,2.05-1.197,3.8-2.491,5.384c-0.324,0.396-0.76,0.245-1.123,0.305
		c-2.745,0.437-5.475,1.012-8.27,1.051c-1.014,1.471-2.019,2.95-3.045,4.414c-2.519,3.592-5.045,7.182-7.569,10.771
		c0.667,0.264,1.084,0.86,1.655,1.246c0.582,0.393,0.925,0.902,1.108,1.594c0.644,2.386,1.33,4.763,1.973,7.15
		c0.138,0.505,0.282,1.009,0.412,1.516c0.206,0.805,0.664,0.999,1.346,1.028c0.434,0.019,0.869-0.009,1.303,0.006
		c0.32,0.011,0.439-0.093,0.524-0.436c0.066-0.268,0.14-0.534,0.21-0.801l0,0c0.398-1.546,0.822-3.084,1.23-4.63
		c0.547-2.068,1.09-4.137,1.614-6.212c0.12-0.473,0.322-0.714,0.836-0.615c1.445,0.276,2.891,0.558,4.34,0.806
		c1.244,0.21,2.539,0.303,2.875,1.893c0.095,0.45,0.388,0.819,0.584,1.229c1.563,3.234,3.113,6.481,4.647,9.734
		c0.197,0.422,0.466,0.558,0.894,0.479c1.21-0.217,2.421-0.441,3.633-0.658c0.547-0.098,0.819-0.38,0.962-0.96
		c0.528-2.127,1.171-4.228,1.687-6.356c0.576-2.388,1.61-4.692,1.401-7.233c-0.016-0.229,0.146-0.471,0.139-0.701
		c-0.019-0.413,0.198-0.374,0.495-0.374c1.353-0.015,2.678,0.315,4.021,0.32c0.667,0,1.024,0.249,1.299,0.836
		c0.873,1.878,1.785,3.734,2.693,5.594c0.151,0.312,0.281,0.665,0.756,0.58c1.69-0.297,3.394-0.499,5.103-0.644
		c0.696-0.058,0.898-0.434,0.791-1.084c-0.174-1.057-0.347-2.114-0.473-3.179c-0.343-2.902-0.632-5.813-1.026-8.714
		c-0.072-0.516,0.074-0.666,0.442-0.838c1.046-0.491,2.08-1.005,3.133-1.48c0.956-0.431,1.852-0.98,2.837-1.354
		c0.419-0.161,0.658-0.074,0.91,0.227c1.457,1.732,3.036,3.361,4.531,5.06c0.61,0.691,1.35,1.27,1.837,2.042
		c0.384,0.615,0.877,0.819,1.496,0.669c0.806-0.198,1.612-0.153,2.418-0.132c0.658,0.018,0.701-0.145,0.427-0.711
		c-1.194-2.436-2.343-4.895-3.513-7.345c-0.9-1.893-0.828-2.186,0.86-3.451c0.13-0.097,0.289-0.157,0.404-0.265
		c2.409-2.239,4.833-4.467,7.209-6.739c0.51-0.489,0.78-0.595,1.319-0.024c2.297,2.415,4.646,4.782,6.977,7.162
		c0.184,0.187,0.335,0.487,0.652,0.426c1.396-0.269,2.783-0.558,4.224-0.849c-0.317-0.706-0.578-1.325-0.867-1.928
		c-1.67-3.464-3.34-6.926-5.028-10.379c-0.196-0.403-0.186-0.68,0.159-0.979c0.341-0.298,0.632-0.648,0.949-0.973
		c1.561-1.587,3.123-3.164,4.672-4.763c0.262-0.266,0.482-0.241,0.77-0.104c0.847,0.408,1.697,0.813,2.546,1.209
		c2.603,1.218,5.21,2.428,7.811,3.647c0.207,0.098,0.38,0.182,0.605,0.064c0.906-0.465,1.816-0.917,2.771-1.397
		c-1.098-1.286-2.111-2.535-3.166-3.753c-1.883-2.172-3.67-4.422-5.526-6.616c-0.39-0.464-0.469-0.807-0.076-1.323
		c1.534-2.031,3.053-4.076,4.519-6.159c0.351-0.498,0.667-0.688,1.232-0.513c2.554,0.797,5.109,1.596,7.669,2.374
		c1.713,0.524,3.443,1.004,5.154,1.544c0.315,0.1,0.415,0.031,0.549-0.221c0.671-1.224,1.336-2.45,2.044-3.653
		c0.18-0.304,0.033-0.357-0.165-0.473c-1.866-1.063-3.726-2.129-5.588-3.198c-1.835-1.055-3.669-2.119-5.508-3.17
		c-0.376-0.215-0.479-0.452-0.326-0.893c0.888-2.524,1.751-5.059,2.597-7.598c0.148-0.442,0.387-0.624,0.826-0.548
		c0.771,0.137,1.559,0.109,2.332,0.184c2.624,0.265,5.254,0.45,7.882,0.632c0.86,0.059,1.738,0.048,2.57,0.235
		c0.493,0.111,0.551-0.084,0.654-0.402c0.51-1.581,1.007-3.167,1.542-4.737c0.213-0.623-0.061-0.873-0.586-1.108
		c-3.512-1.544-7.005-3.123-10.516-4.665c-0.506-0.222-0.636-0.517-0.639-1.043c-0.012-2.411,0.079-4.818,0.153-7.225
		c0.022-0.708,0.332-0.869,0.896-0.932c1.52-0.165,3.045-0.293,4.561-0.506c3.053-0.429,6.112-0.809,9.182-1.144
		c0.382-0.041,0.908,0.003,1.02-0.582c0.12-0.627,0.178-1.277,0.354-1.891c0.141-0.483-0.004-0.613-0.444-0.784
		c-3.911-1.536-7.812-3.119-11.725-4.655c-0.395-0.152-0.565-0.308-0.563-0.73c0.014-2.254,0.017-4.509-0.002-6.761
		c-0.005-0.452,0.197-0.638,0.596-0.699c0.769-0.12,1.54-0.211,2.307-0.352c3.841-0.695,7.683-1.414,11.526-2.102
		C301.977,130.729,302.129,130.376,302.034,129.779z M272.079,140.96c-0.846,5.757-2.041,11.422-3.839,16.968
		c-1.668,5.15-3.825,10.08-6.319,14.869c-1.685,3.237-3.696,6.282-5.705,9.326c-0.617,0.939-1.577,0.888-2.42,0.822
		c-1.403-0.105-2.828-0.242-4.141-0.882c-0.302-0.146-0.562-0.295-0.786-0.524c-7.969-7.968-15.933-15.94-23.913-23.894
		c-0.396-0.395-0.436-0.663-0.175-1.156c2.184-4.203,3.889-8.592,4.977-13.209c0.59-2.504,1.104-5.022,1.257-7.601
		c0.015-0.237,0.111-0.471,0.146-0.708c0.165-1.189,0.163-1.189,1.399-1.189c5.487,0,10.97,0,16.455,0
		c5.375,0,10.753,0.033,16.126-0.024c1.268-0.015,2.302,0.396,3.309,1.048c1.121,0.729,2.066,1.619,2.778,2.767
		C271.879,138.623,272.27,139.665,272.079,140.96z M272.127,124.727c-0.159,0.022-0.18,0.239-0.241,0.39
		c-1.134,2.813-3.245,4.622-5.977,5.795c-0.297,0.128-0.584,0.097-0.875,0.099c-5.456,0.002-10.916,0.002-16.372,0.002
		c-5.484,0-10.969-0.017-16.454,0.019c-0.735,0.005-0.894-0.21-0.89-0.912c0.021-4.694-0.563-9.312-1.72-13.87
		c-0.795-3.125-1.829-6.155-3.147-9.091c-0.256-0.574-0.149-0.871,0.272-1.288c4.582-4.552,9.146-9.128,13.717-13.698
		c3.647-3.646,7.324-7.267,10.924-10.959c0.975-1,2.147-1.375,3.402-1.675c0.847-0.204,1.715-0.145,2.578-0.188
		c0.481-0.022,0.749,0.186,0.968,0.543c1.777,2.906,3.506,5.836,5.008,8.893c3.235,6.566,5.643,13.433,7.242,20.57
		c0.683,3.056,1.216,6.144,1.525,9.271c0.176,1.766,0.402,3.524,0.462,5.3C272.561,124.26,272.653,124.644,272.127,124.727z"/>
</g>
<g id="white">
	<path fill="#FFFFFF" d="M114.041,163.285c3.728-2.446,6.314-5.712,7.324-10.13c0.555-2.428,0.349-4.81-0.35-7.161
		c-0.167-0.571-0.035-0.675,0.506-0.652c4.158,0.192,7.533,3.043,7.528,7.531c-0.002,2.241-0.809,4.159-2.07,5.963
		c1.437-0.899,2.572-2.111,3.586-3.427c1.552-2.008,2.661-4.262,2.971-6.787c0.46-3.742-0.708-6.921-3.72-9.315
		c-0.826-0.654-0.845-0.65,0.121-1.136c1.408-0.706,2.902-1.042,4.481-1.173c2.292-0.186,4.261,0.403,5.828,2.087
		c1.12,1.208,1.733,2.69,1.961,4.321c0.035,0.247,0.054,0.479,0.252,0.691c0.402-0.865,0.471-1.807,0.536-2.702
		c0.32-4.238-0.489-8.243-2.725-11.907c-0.186-0.308-0.295-0.565-0.124-0.935c1.757-3.801,5.188-6.131,9.597-5.665
		c1.656,0.176,3.173,0.865,4.622,1.813c-1.226-5.014-6.882-7.97-12.596-4.4c0.606-0.771,1.209-1.546,1.822-2.314
		c3.284-4.112,6.885-7.935,10.621-11.632c0.18-0.159,0.356-0.316,0.642-0.57c-0.497-0.004-0.599,0.272-0.786,0.426
		c-0.948,0.491-1.85,1.075-2.884,1.401c-1.864,0.595-3.619,0.603-5.456-0.304c-1.579-0.78-2.51-1.928-3.113-3.501
		c-0.219-0.565-0.049-0.751,0.463-0.811c3.255-0.385,6.304-1.408,9.202-2.924c2.558-1.337,4.887-2.975,6.841-5.112
		c0.091-0.1,0.217-0.182,0.271-0.3c0.105-0.229,0.424-0.477,0.176-0.714c-0.194-0.187-0.436,0.086-0.625,0.202
		c-1.749,1.051-3.508,2.087-5.519,2.554c-2.556,0.588-5.016,0.394-7.394-1.14c5.315-3.588,10.581-7.141,15.847-10.695
		c-4.039,2-7.964,2.281-11.613-0.812c-2.659-2.25-3.964-6.168-3.575-9.421c0.373,0.165,0.727,0.347,1.094,0.479
		c2.913,1.045,5.623,0.568,8.234-1.016c7.945-4.824,14.021-11.335,17.883-19.825c1.468-3.229,2.444-6.616,2.861-10.156
		c0.404-3.435,1.459-6.733,2.192-10.101c0.239-1.106,0.351-2.248,1.453-3.001c1.492-1.018,3.045-1.699,4.884-1.497
		c0.367,0.042,0.771,0.089,1.08,0.267c0.673,0.386,0.977,0.128,1.251-0.493c1.133-2.57,1.88-5.215,2.035-8.049
		c0.097-1.792-0.062-3.527-0.337-5.28c-0.065-0.411-0.234-0.448-0.573-0.471c-1.581-0.097-2.324-1.136-1.942-2.698
		c0.078-0.324-0.048-0.714,0.301-0.977c0.436,0.469,0.888,0.925,1.301,1.416c0.363,0.424,0.645,0.368,0.988-0.022
		c0.851-0.96,1.815-1.75,3.091-2.113c1.87-0.535,3.66-0.188,5.429,0.431c0.632,0.222,1.27,0.44,1.864,0.739
		c0.428,0.215,0.644,0.098,0.854-0.262c0.285-0.483,0.589-0.954,0.925-1.499c0.795,1.383,1.536,2.704,2.31,4.007
		c0.645,1.082,1.503,1.948,2.572,2.641c1.084,0.699,1.959,1.674,2.481,2.832c1.104,2.448,2.756,4.55,4.161,6.804
		c1.491,2.391,2.255,5.01,2.769,7.732c0.015,0.079,0.017,0.165,0.002,0.244c-0.056,0.299,0.182,0.764-0.163,0.864
		c-0.28,0.085-0.48-0.351-0.677-0.604c-1.062-1.375-2.533-2.265-3.897-3.282c-0.313-0.233-0.417-0.109-0.485,0.278
		c-1.409,7.96-4.894,15.036-9.299,21.717c-0.382,0.575-0.758,1.158-1.221,1.868c0.96-0.109,1.705-0.396,2.446-0.678
		c3.749-1.42,7.387-3.061,10.805-5.186c1.6-0.994,2.613-2.217,2.892-4.169c0.361-2.517,1.091-4.978,1.067-7.55
		c-0.006-0.373,0.056-0.755-0.126-1.116c-0.074-0.143-0.065-0.328,0.1-0.436c0.202-0.13,0.284,0.07,0.39,0.167
		c0.828,0.76,1.379,1.722,1.92,2.686c0.619,1.101,1.181,2.228,1.6,3.421c0.089,0.258,0.146,0.423,0.461,0.456
		c1.889,0.208,2.986,1.447,3.816,3.006c0.991,1.868,1.462,3.887,1.796,5.961c0.333,2.042,0.246,4.094,0.333,6.144
		c0.051,1.261,0.186,2.526,0.26,3.786c0.087,1.505-0.021,3.03-0.186,4.531c-0.1,0.91-0.145,1.822-0.231,2.73
		c-0.269,2.75-0.56,5.497-1.373,8.14c-0.776,2.519-1.271,5.097-1.718,7.671c-1.151,6.622-3.531,12.685-7.695,17.996
		c-0.753,0.964-1.442,2.031-2.727,2.563c-0.198-1.181,0.301-2.2,0.51-3.247c0.5-2.521,0.995-5.034,1.27-7.599
		c0.215-2.006,0.208-4.017,0.093-6.007c-0.128-2.239-0.485-4.473-0.929-6.684c-0.039-0.198-0.037-0.372-0.304-0.382
		c-0.21-0.009-0.398,0.043-0.471,0.241c-1.055,2.919-3.236,5.175-4.646,7.896c-1.303,2.504-2.605,4.998-3.621,7.636
		c-1.238,3.219-3.045,6.152-4.613,9.207c-2.054,4-3.97,8.073-6.059,12.056c-3.282,6.25-5.411,12.94-7.63,19.592
		c-3.273,9.815-6.183,19.745-8.946,29.713c-1.818,6.561-3.588,13.135-5.104,19.773c-0.172,0.754-0.572,0.494-1.021,0.31
		c-5.229-2.148-10.462-4.289-15.692-6.43c-2.652-1.086-5.303-2.172-7.953-3.258c-0.116-0.047-0.22-0.175-0.401-0.022
		c0.116,0.563,0.469,1.04,0.728,1.553c3.24,6.396,6.481,12.792,9.751,19.173c0.248,0.482,0.188,0.809-0.052,1.246
		c-5.058,9.24-10.103,18.486-15.146,27.729c-1.063,1.949-2.105,3.908-3.175,5.892c-2.754-2.465-5.453-4.886-8.164-7.297
		c-2.789-2.483-5.596-4.948-8.381-7.434c-1.857-1.662-3.705-3.334-5.524-5.033c-0.396-0.369-0.592-0.443-1.016-0.022
		c-4.155,4.133-8.333,8.241-12.511,12.357c-2.572,2.528-5.161,5.043-7.717,7.588c-0.428,0.425-0.567,0.324-0.871-0.115
		c-4.12-6.021-8.264-12.031-12.4-18.04c-1.646-2.396-3.277-4.804-4.96-7.176c-0.396-0.559-0.558-1.17-0.615-1.794
		c-0.239-2.584-0.537-5.181-0.324-7.771c0.324-3.945,1.775-7.487,4.218-10.608c0.575-0.734,1.209-1.425,1.944-2.066
		c-0.743,5.501-1.486,11.003-2.229,16.504c5.518-9.285,8.763-19.33,10.099-30.029c0.96,3.245,1.431,6.531,1.455,9.898
		c0.026,3.351-0.388,6.637-1.11,9.904c2.621-5.656,4.432-11.572,5.627-17.672c1.195-6.104,1.728-12.274,1.557-18.507
		c2.65,5.861,3.474,11.957,2.391,18.468c0.734-0.793,1.141-1.61,1.591-2.387c2.213-3.821,3.658-7.927,4.383-12.272
		c0.223-1.348,0.334-2.721,0.386-4.1c0.066-1.779,0.044-3.544-0.186-5.307c-0.078-0.611,0.351-0.498,0.675-0.475
		c2.993,0.206,5.803,1.878,6.802,5.162c0.743,2.437,0.226,4.665-1.305,6.676c-0.145,0.192-0.28,0.393-0.423,0.589
		c-0.054,0.074-0.107,0.152-0.163,0.227C113.898,163.487,113.979,163.413,114.041,163.285z"/>
	<path fill="#FFFFFF" d="M153.07,182.614c1.106,0.448,2.213,0.896,3.319,1.349c8.377,3.427,16.772,6.816,25.13,10.292
		c5.441,2.265,10.827,4.661,16.248,6.972c0.65,0.276,0.528,0.506,0.204,0.964c-4.847,6.859-9.679,13.731-14.512,20.604
		c-6.261,8.896-12.511,17.798-18.772,26.693c-6.789,9.644-13.587,19.277-20.378,28.916c-0.513,0.727-1.045,1.438-1.521,2.186
		c-0.279,0.434-0.475,0.537-0.894,0.135c-1.074-1.03-2.192-2.013-3.285-3.026c-4.434-4.105-8.867-8.212-13.291-12.324
		c-2.68-2.491-5.343-4.997-8.008-7.503c-0.799-0.754-0.764-0.743-1.455,0.054c-1.742,2-3.512,3.974-5.26,5.97
		c-2.122,2.419-4.226,4.855-6.348,7.276c-2.104,2.4-4.22,4.793-6.331,7.188c-0.841,0.954-1.692,1.897-2.522,2.859
		c-0.293,0.341-0.432,0.406-0.75-0.033c-2.026-2.791-4.102-5.549-6.149-8.325c-5.295-7.182-10.581-14.365-15.87-21.547
		c-6.185-8.399-12.362-16.81-18.554-25.202c-5.872-7.96-11.756-15.912-17.646-23.861c-0.353-0.475-0.162-0.586,0.271-0.774
		c5.977-2.593,11.944-5.199,17.912-7.805c7.227-3.154,14.45-6.311,21.675-9.465c0.285-0.124,0.578-0.231,0.993-0.396
		c-0.611,1.846-1.183,3.582-1.759,5.32c-1.186,3.552-2.363,7.106-3.567,10.655c-0.171,0.51-0.107,0.966-0.031,1.48
		c0.428,2.897,2.372,4.927,4.001,7.138c3.004,4.079,5.795,8.303,8.668,12.471c3.803,5.518,7.601,11.044,11.385,16.576
		c0.34,0.497,0.54,0.578,0.999,0.117c2.563-2.582,5.152-5.134,7.741-7.691c3.552-3.507,7.109-7.012,10.67-10.514
		c0.732-0.722,1.505-1.407,2.225-2.143c0.3-0.308,0.467-0.274,0.771-0.002c4.222,3.805,8.449,7.603,12.693,11.385
		c3.149,2.81,6.341,5.567,9.467,8.401c0.603,0.543,0.755,0.244,1.009-0.223c1.949-3.588,3.902-7.176,5.853-10.764
		c4.046-7.433,8.092-14.868,12.14-22.304c0.591-1.086,1.169-2.18,1.784-3.252c0.219-0.384,0.249-0.673,0.033-1.096
		c-2.694-5.256-5.363-10.525-8.036-15.792c-0.131-0.262-0.246-0.532-0.368-0.797C152.991,182.722,153.031,182.668,153.07,182.614z
		 M163.768,190.934c0.106,0.402,0.162,0.634,0.23,0.863c0.758,2.539,1.507,5.082,2.275,7.619c0.782,2.586,0.775,2.574-0.678,4.915
		c-5.082,8.195-10.147,16.398-15.228,24.594c-2.653,4.285-5.328,8.555-7.966,12.848c-0.318,0.519-0.485,0.452-0.874,0.091
		c-2.56-2.374-5.136-4.733-7.72-7.082c-5.211-4.737-10.443-9.455-15.635-14.215c-0.613-0.562-1.004-0.436-1.468,0.07
		c-0.663,0.714-1.327,1.427-1.979,2.15c-3.43,3.801-6.85,7.611-10.287,11.401c-2.471,2.731-4.989,5.421-7.429,8.183
		c-0.483,0.547-0.638,0.324-0.927-0.063c-4.218-5.646-8.394-11.325-12.611-16.975c-2.477-3.315-4.952-6.637-7.394-9.98
		c-2.96-4.055-5.98-8.069-8.981-12.095c-0.265-0.355-0.318-0.669-0.168-1.104c0.919-2.659,1.813-5.326,2.688-7.999
		c0.324-0.977,0.729-1.935,0.934-3.082c-0.749,0.324-1.385,0.595-2.017,0.869c-8.493,3.703-16.983,7.412-25.481,11.107
		c-0.576,0.25-0.772,0.396-0.3,1.03c3.736,4.998,7.426,10.028,11.127,15.051c4.628,6.281,9.254,12.565,13.884,18.849
		c6.183,8.387,12.365,16.772,18.55,25.157c2.869,3.887,5.751,7.768,8.604,11.665c0.283,0.384,0.415,0.491,0.756,0.085
		c0.764-0.914,1.564-1.796,2.352-2.694c3.35-3.827,6.696-7.658,10.055-11.481c2.587-2.947,5.2-5.875,7.774-8.837
		c0.319-0.374,0.456-0.376,0.793-0.054c1.155,1.104,2.351,2.168,3.52,3.26c2.834,2.645,5.649,5.307,8.494,7.943
		c4.129,3.829,8.29,7.625,12.404,11.473c0.545,0.511,0.766,0.529,1.205-0.095c6.744-9.606,13.52-19.195,20.275-28.797
		c5.821-8.273,11.62-16.563,17.439-24.839c3.938-5.603,7.883-11.201,11.859-16.776c0.453-0.64,0.291-0.836-0.329-1.099
		c-5.212-2.227-10.42-4.467-15.626-6.711C171.898,194.457,167.912,192.728,163.768,190.934z"/>
	<path fill="#FFFFFF" d="M130.01,73.512c-0.823,1.72-1.859,3.323-2.799,4.977c-1.773,3.128-3.571,6.243-5.284,9.56
		c4.521-1.325,9.039-2.648,13.787-4.041c-3.128,4.801-6.127,9.406-9.22,14.156c2.779-0.477,5.378-0.923,8.097-1.389
		c-2.116,3.612-4.176,7.125-6.277,10.713c3.674,0.345,7.254,0.682,10.829,1.018c0.017,0.05,0.031,0.1,0.045,0.149
		c-3.561,1.724-7.121,3.449-10.895,5.276c2.495,0.759,4.754,1.444,7.119,2.165c-1.891,1.138-3.687,2.263-5.523,3.317
		c-8.803,5.047-17.999,9.18-27.767,11.991c-3.652,1.053-7.343,1.942-11.096,2.517c-4.399,0.671-8.846,0.512-13.281,0.538
		c-2.413,0.013-4.818-0.132-7.226-0.208c-2.233-0.072-4.467-0.267-6.692-0.493c-0.875-0.087-1.674-0.55-2.473-0.917
		c-2.932-1.35-5.96-1.474-9.063-0.76c-1.081,0.25-2.178,0.498-3.129-0.361c-1.202-1.081-1.021-2.697,0.423-3.885
		c2.566-2.109,5.365-3.896,8.08-5.796c4.991-3.495,9.912-7.081,14.633-10.941c4.763-3.891,9.665-7.604,14.652-11.202
		c2.029-1.462,3.516-3.423,4.994-5.393c3.168-4.228,7.249-7.363,11.813-9.931c4.085-2.3,8.527-3.577,13.073-4.558
		c0.439-0.094,0.879-0.201,1.32-0.3c0.02-0.004,0.048,0.021,0.164,0.074c-0.88,1.437-1.755,2.867-2.633,4.296
		c0.035,0.041,0.072,0.08,0.105,0.124c0.936-0.721,1.87-1.437,2.802-2.157c3.692-2.855,7.384-5.712,11.079-8.566
		c0.063-0.048,0.145-0.072,0.219-0.109C129.928,73.421,129.969,73.469,130.01,73.512z M105.171,97.088
		c-0.048-0.054-0.095-0.109-0.143-0.163c1.22-2.122,2.438-4.244,3.749-6.523c-1.608,0.402-2.952,0.904-4.253,1.516
		c-3.77,1.769-7.002,4.229-9.638,7.466c-1.006,1.235-1.786,2.641-2.93,3.766c-2.213,2.178-4.508,4.228-7.208,5.836
		c-2.17,1.29-3.823,3.257-5.65,4.979c-3.511,3.306-7.313,6.201-11.543,8.528c-2.45,1.346-5.028,2.423-7.552,3.616
		c-0.27,0.128-0.61,0.189-0.734,0.619c0.423,0.054,0.776,0.078,1.149-0.021c1.766-0.465,3.569-0.772,5.384-0.886
		c2.564-0.161,5.097,0.122,7.565,0.904c2.558,0.81,5.141,1.499,7.856,1.525c2.112,0.021,4.195-0.189,6.282-0.483
		c2.704-0.377,5.404-0.768,8.059-1.409c7.849-1.901,15.038-5.297,21.875-9.535c1.48-0.917,2.519-1.903,2.731-3.722
		c0.161-1.416,0.73-2.763,0.539-4.251c-0.343-2.65-0.851-5.28-0.68-7.99c0.13-2.046,0.169-4.098,0.322-6.144
		c0.026-0.354,0.191-0.766-0.13-1.084c-1.544-1.523-3.093-3.045-4.643-4.563c-0.209-0.2-0.407-0.293-0.691-0.05
		c-2.04,1.729-4.09,3.447-6.146,5.158C107.563,95.16,106.361,96.12,105.171,97.088z"/>
	<path fill="#FFFFFF" d="M151.193,63.259c2.808-1.119,5.421-2.605,7.971-4.218c0.317-0.2,0.647-0.38,0.974-0.569
		c0.102,0.392-0.177,0.606-0.4,0.844c-3.166,3.377-7.054,5.456-11.532,6.546c-3.931,0.954-7.717,0.439-11.453-0.881
		c-0.113-0.04-0.204-0.137-0.432-0.291c1.342,0.15,2.521,0.394,3.714,0.53c2.997,0.349,5.894,0.01,8.738-0.952
		C149.602,63.987,150.424,63.686,151.193,63.259z"/>
	<path fill-rule="evenodd" clip-rule="evenodd" fill="#C1C0C0" d="M129.889,73.376c0.074-0.048,0.15-0.096,0.227-0.145
		c0.085,0.14,0.027,0.223-0.105,0.28C129.969,73.469,129.928,73.421,129.889,73.376z"/>
	<path fill-rule="evenodd" clip-rule="evenodd" fill="#454545" d="M154.069,106.21c0.188-0.153,0.289-0.43,0.786-0.426
		c-0.285,0.254-0.462,0.411-0.642,0.57C154.166,106.305,154.119,106.257,154.069,106.21z"/>
	<path fill-rule="evenodd" clip-rule="evenodd" fill="#454545" d="M114.041,163.285c-0.063,0.128-0.143,0.202-0.287,0.101
		c0.056-0.074,0.109-0.152,0.163-0.227C113.958,163.2,114,163.241,114.041,163.285z"/>
	<path fill="#FFFFFF" d="M152.81,53.814c0.708,0.198,1.456,0.3,2.048,0.786c0.289,0.237,0.628,0.533,0.491,0.919
		c-0.14,0.393-0.538,0.541-0.982,0.567c-0.658,0.037-1.27-0.124-1.883-0.315c-0.072-0.035-0.148-0.063-0.216-0.107
		c-0.467-0.302-1.105-0.591-0.886-1.255C151.584,53.806,152.236,53.788,152.81,53.814z"/>
	<path fill-rule="evenodd" clip-rule="evenodd" fill="#C1C0C0" d="M105.171,97.088c-0.095,0.126-0.19,0.25-0.31,0.406
		c-0.182-0.343,0.049-0.434,0.167-0.569C105.076,96.979,105.123,97.034,105.171,97.088z"/>
	<path fill="#FFFFFF" d="M67.234,75.394L41.459,49.619L30.992,60.086l2.159,11.061l8.308,8.309l3.223-3.222L55.538,87.09
		l-3.222,3.222l11.697,11.698l18.141-18.141L70.456,72.172L67.234,75.394z M76.902,83.871L64.014,96.759l-6.447-6.447l3.223-3.222
		L44.682,70.982l-3.223,3.222l-4.88-4.88l-1.565-8.009l6.445-6.446l25.775,25.775l3.221-3.221L76.902,83.871z"/>
	<path fill="#FFFFFF" d="M45.923,96.705L20.148,70.93L9.681,81.397l2.16,11.06l8.309,8.309l3.222-3.223l10.857,10.856l-3.223,3.223
		l11.698,11.697l18.139-18.139L49.146,93.482L45.923,96.705z M55.592,105.181l-12.888,12.888l-6.447-6.446l3.222-3.223
		L23.371,92.292l-3.222,3.223l-4.881-4.881l-1.564-8.009l6.444-6.444l25.774,25.775l3.222-3.223L55.592,105.181z"/>
	<path fill="#FFFFFF" d="M102.468,2.001L89.078,2L77.884,13.194v12.093l-6.046-6.047L47.254,43.824l17.89,17.889h9.333l-4.666,4.666
		l8.223,8.224h13.388l11.195-11.195l-0.002-12.743l12.742,0.003l11.194-11.195V26.084l-11.196-11.196l-1.691-0.001l-0.001-1.692
		L102.468,2.001z M98.902,51.557l0.001,10.313l-9.021,9.021L79.57,70.889l-4.51-4.51l6.444-6.443l3.22,3.219l6.443-6.443
		l-6.441-6.441l-7.732,7.732L66.682,58L52.505,43.824l19.333-19.332l6.443,6.443L65.394,43.824l6.445,6.445l7.732-7.732l10.31-0.002
		L98.902,51.557z M78.033,38.824l-6.194,6.194l-1.194-1.194l12.24-12.241l3.224,3.224l9.666-9.666l7.637,7.638l-9.019,9.019
		l-2.973-2.974L78.033,38.824z M109.949,14.733V18.6h3.867l9.021,9.021l0.001,10.313l-9.021,9.021l-10.312-0.002l-4.51-4.509
		L105.44,36l3.219,3.219l6.445-6.445l-6.44-6.441l-3.224,3.224l-6.444-6.443l3.224-3.224l-6.445-6.445l-6.446,6.445l3.224,3.224
		l-6.443,6.443l-4.511-4.511l-0.002-10.312l9.021-9.021l10.313,0.001L109.949,14.733z"/>
</g>
<g id="light_blue_1119_outline" display="none">
</g>
<g id="white_1119_outline">
</g>
</svg>
